<svg width="231" height="41" viewBox="0 0 231 41" fill="none" xmlns="http://www.w3.org/2000/svg">
<path fill-rule="evenodd" clip-rule="evenodd" d="M31.6473 39.5529L35.597 28.695H34.4801L30.8733 38.8675L31.6473 39.5529ZM30.607 38.6318L27.0837 28.695H25.9668L29.0943 37.2924L30.607 38.6318ZM8.63325 19.1759C9.27855 19.1177 9.88359 18.9835 10.4484 18.7733C11.229 18.4827 11.9185 18.0781 12.5169 17.5595C13.1209 17.041 13.6166 16.437 14.0041 15.7475C14.3973 15.0523 14.6651 14.3029 14.8076 13.4995H13.2007C13.081 14.0978 12.8645 14.6534 12.5511 15.1662C12.2433 15.6791 11.8559 16.1264 11.3886 16.5082C10.9213 16.8843 10.3914 17.1777 9.79876 17.3886C9.20614 17.5994 8.56507 17.7048 7.87558 17.7048C7.53448 17.7048 7.2026 17.6777 6.87995 17.6235L8.63325 19.1759ZM2.38552 13.644C2.03393 12.6683 1.85813 11.526 1.85813 10.2172C1.85813 8.6046 2.1288 7.24269 2.67015 6.13152C3.21719 5.01465 3.94372 4.16844 4.84976 3.59291C5.76149 3.01738 6.7701 2.72961 7.87558 2.72961C8.56507 2.72961 9.20614 2.83503 9.79876 3.04587C10.3914 3.25671 10.9213 3.55302 11.3886 3.93481C11.8559 4.3166 12.2433 4.76392 12.5511 5.27677C12.8645 5.78392 13.081 6.33666 13.2007 6.93499H14.8076C14.6651 6.12582 14.3973 5.37649 14.0041 4.68699C13.6166 3.99749 13.1209 3.39347 12.5169 2.87492C11.9185 2.35067 11.229 1.94609 10.4484 1.66118C9.6677 1.37056 8.8101 1.22525 7.87558 1.22525C6.4054 1.22525 5.10049 1.59564 3.96082 2.33643C2.82115 3.07151 1.92651 4.11146 1.2769 5.45627C0.632991 6.80107 0.311035 8.38806 0.311035 10.2172C0.311035 10.8009 0.343819 11.3599 0.409386 11.8943L2.38552 13.644ZM121.305 3.51598C122.068 4.09152 122.498 4.86649 122.595 5.8409H124.142C124.108 4.95196 123.843 4.1599 123.347 3.4647C122.857 2.7638 122.194 2.21391 121.356 1.81503C120.518 1.41615 119.555 1.21671 118.467 1.21671C117.39 1.21671 116.418 1.419 115.552 1.82358C114.692 2.22246 114.008 2.7809 113.501 3.49889C112.999 4.21118 112.749 5.03744 112.749 5.97766C112.749 7.10024 113.127 8.02337 113.885 8.74706C114.643 9.47074 115.709 10.0377 117.082 10.448L119.176 11.0634C119.9 11.2743 120.535 11.5164 121.082 11.79C121.635 12.0635 122.065 12.4025 122.373 12.8071C122.681 13.206 122.835 13.7018 122.835 14.2944C122.835 14.9953 122.638 15.6107 122.245 16.1406C121.857 16.6649 121.322 17.0752 120.638 17.3715C119.96 17.6621 119.185 17.8074 118.313 17.8074C117.527 17.8074 116.814 17.6849 116.176 17.4399C115.538 17.1891 115.019 16.8244 114.62 16.3458C114.222 15.8671 113.994 15.283 113.937 14.5935H112.296C112.358 15.5167 112.64 16.3287 113.142 17.0296C113.643 17.7305 114.333 18.2804 115.21 18.6793C116.088 19.0724 117.122 19.269 118.313 19.269C119.578 19.269 120.664 19.0525 121.57 18.6194C122.476 18.1806 123.171 17.588 123.655 16.8415C124.14 16.0951 124.382 15.2546 124.382 14.32C124.382 13.5906 124.239 12.9667 123.954 12.4481C123.675 11.9239 123.302 11.4823 122.835 11.1233C122.373 10.7586 121.863 10.4566 121.305 10.2172C120.746 9.9779 120.188 9.7813 119.629 9.62745L117.783 9.0975C117.361 8.97784 116.943 8.82968 116.527 8.65303C116.116 8.47638 115.74 8.26555 115.398 8.02052C115.062 7.76979 114.794 7.47063 114.595 7.12303C114.395 6.77543 114.296 6.37085 114.296 5.90929C114.296 5.28247 114.469 4.72403 114.817 4.23397C115.17 3.73822 115.655 3.35073 116.27 3.07151C116.891 2.7923 117.609 2.65269 118.424 2.65269C119.581 2.65269 120.541 2.94045 121.305 3.51598ZM22.6266 19.2434C21.4926 19.2434 20.4897 18.9556 19.6179 18.3801C18.7517 17.8046 18.0736 17.0096 17.5836 15.9953C17.0935 14.9753 16.8485 13.7986 16.8485 12.4652C16.8485 11.1204 17.0935 9.93801 17.5836 8.91801C18.0736 7.89231 18.7517 7.09454 19.6179 6.5247C20.4897 5.94917 21.4926 5.66141 22.6266 5.66141C23.7606 5.66141 24.7606 5.94917 25.6268 6.5247C26.4929 7.10024 27.171 7.898 27.6611 8.91801C28.1568 9.93801 28.4047 11.1204 28.4047 12.4652C28.4047 13.7986 28.1597 14.9753 27.6696 15.9953C27.1796 17.0096 26.4986 17.8046 25.6268 18.3801C24.7606 18.9556 23.7606 19.2434 22.6266 19.2434ZM22.6266 17.8501C23.5383 17.8501 24.3105 17.6051 24.943 17.1151C25.5755 16.625 26.0541 15.9725 26.379 15.1577C26.7095 14.3428 26.8747 13.4453 26.8747 12.4652C26.8747 11.4851 26.7095 10.5848 26.379 9.76421C26.0541 8.94365 25.5755 8.28549 24.943 7.78974C24.3105 7.29398 23.5383 7.0461 22.6266 7.0461C21.7206 7.0461 20.9484 7.29398 20.3102 7.78974C19.6777 8.28549 19.1962 8.94365 18.8657 9.76421C18.5409 10.5848 18.3785 11.4851 18.3785 12.4652C18.3785 13.4453 18.5409 14.3428 18.8657 15.1577C19.1962 15.9725 19.6777 16.625 20.3102 17.1151C20.9427 17.6051 21.7149 17.8501 22.6266 17.8501ZM31.0226 5.8409V18.9699H32.544V10.5591C32.544 9.87533 32.6808 9.2713 32.9543 8.74706C33.2335 8.21711 33.6124 7.80398 34.0911 7.50767C34.5755 7.21135 35.1197 7.0632 35.7237 7.0632C36.624 7.0632 37.3221 7.33672 37.8178 7.88376C38.3136 8.4308 38.5615 9.14879 38.5615 10.0377V18.9699H40.1171V10.3283C40.1171 9.38242 40.3878 8.60175 40.9291 7.98633C41.4704 7.37091 42.2426 7.0632 43.2455 7.0632C44.1116 7.0632 44.8097 7.32247 45.3396 7.84102C45.8696 8.35957 46.1345 9.13739 46.1345 10.1745V18.9699H47.656V10.1745C47.656 8.70432 47.3027 7.58744 46.5961 6.82387C45.8895 6.05459 44.9265 5.66995 43.707 5.66995C42.7497 5.66995 41.9349 5.88649 41.2625 6.31956C40.5958 6.74694 40.1142 7.32532 39.8179 8.05471H39.7068C39.4162 7.31392 38.9774 6.73269 38.3905 6.31102C37.8093 5.88364 37.0656 5.66995 36.1596 5.66995C35.2992 5.66995 34.5612 5.86655 33.9458 6.25973C33.3361 6.64722 32.9002 7.18001 32.638 7.85811H32.5013V5.8409H31.0226ZM50.9619 23.8932V5.8409H52.4406V8.34532H52.6201C52.8025 7.95214 53.0532 7.55041 53.3723 7.14012C53.6914 6.72415 54.1131 6.3737 54.6373 6.08878C55.1673 5.80387 55.834 5.66141 56.6375 5.66141C57.7201 5.66141 58.6661 5.94632 59.4752 6.51616C60.2901 7.08029 60.9226 7.87236 61.3728 8.89236C61.8286 9.90667 62.0566 11.0891 62.0566 12.4396C62.0566 13.7958 61.8286 14.9839 61.3728 16.0039C60.9226 17.0239 60.2901 17.8188 59.4752 18.3886C58.6661 18.9585 57.7258 19.2434 56.6545 19.2434C55.8625 19.2434 55.1986 19.1009 54.663 18.816C54.133 18.5311 53.7028 18.1806 53.3723 17.7647C53.0475 17.343 52.7968 16.9327 52.6201 16.5338H52.4834V23.8932H50.9619ZM52.4663 12.4139C52.4663 13.4738 52.623 14.414 52.9364 15.2346C53.2555 16.0495 53.7114 16.6905 54.304 17.1578C54.9023 17.6194 55.626 17.8501 56.475 17.8501C57.3469 17.8501 58.082 17.6108 58.6803 17.1322C59.2843 16.6478 59.743 15.9953 60.0565 15.1748C60.3756 14.3542 60.5351 13.4339 60.5351 12.4139C60.5351 11.4053 60.3784 10.4964 60.065 9.68728C59.7573 8.87812 59.3014 8.23705 58.6974 7.76409C58.0934 7.28543 57.3526 7.0461 56.475 7.0461C55.6203 7.0461 54.8938 7.27689 54.2954 7.73845C53.6971 8.19432 53.2412 8.82683 52.9278 9.636C52.6201 10.4395 52.4663 11.3654 52.4663 12.4139ZM73.0146 5.8409V13.9525C73.0146 14.7559 72.838 15.4341 72.4847 15.9868C72.1314 16.5338 71.6812 16.9498 71.1342 17.2347C70.5871 17.5196 70.0173 17.6621 69.4247 17.6621C68.4788 17.6621 67.7038 17.3515 67.0998 16.7304C66.4957 16.1036 66.1937 15.2773 66.1937 14.2516V5.8409H64.6723V14.3457C64.6723 15.3828 64.8575 16.2575 65.2279 16.9698C65.5983 17.682 66.1083 18.2234 66.7579 18.5938C67.4075 18.9585 68.1511 19.1408 68.9888 19.1408C69.9518 19.1408 70.7666 18.9186 71.4333 18.4741C72.1001 18.0239 72.5873 17.4627 72.895 16.7903H73.0146V18.9699H74.5361V5.8409H73.0146ZM83.0132 5.8409V7.16577H80.2353V15.5423C80.2353 16.0894 80.3293 16.5196 80.5174 16.833C80.7054 17.1407 80.9504 17.3601 81.2525 17.4911C81.5545 17.6165 81.8764 17.6792 82.2183 17.6792C82.4178 17.6792 82.5887 17.6678 82.7312 17.645C82.8736 17.6165 82.999 17.588 83.1073 17.5595L83.4321 18.9357C83.2839 18.9927 83.1016 19.0439 82.885 19.0895C82.6685 19.1408 82.4007 19.1665 82.0816 19.1665C81.5231 19.1665 80.9846 19.0439 80.4661 18.7989C79.9532 18.5539 79.5316 18.1892 79.2011 17.7048C78.8706 17.2205 78.7053 16.6193 78.7053 15.9013V7.16577H76.7479V5.8409H78.7053V2.69542H80.2353V5.8409H83.0132ZM87.7338 18.3886C88.6284 18.9585 89.6883 19.2434 90.9135 19.2434C91.791 19.2434 92.566 19.1038 93.2384 18.8246C93.9165 18.5396 94.4806 18.1636 94.9308 17.6963C95.3866 17.229 95.7143 16.719 95.9137 16.1663L94.4692 15.6962C94.304 16.0894 94.0589 16.4512 93.7341 16.7817C93.415 17.1065 93.019 17.3658 92.546 17.5595C92.0788 17.7533 91.5346 17.8501 90.9135 17.8501C90.0017 17.8501 89.2125 17.6365 88.5458 17.2091C87.8791 16.7817 87.3634 16.1805 86.9987 15.4056C86.6614 14.6722 86.4826 13.8231 86.4622 12.8584H96.2385V12.1062C96.2385 11.0064 96.0847 10.0548 95.777 9.25136C95.4693 8.44219 95.0504 7.77264 94.5205 7.24269C93.9962 6.70705 93.4036 6.31102 92.7426 6.05459C92.0816 5.79247 91.395 5.66141 90.6827 5.66141C89.5487 5.66141 88.5486 5.95487 87.6825 6.5418C86.822 7.12303 86.1468 7.92934 85.6567 8.96074C85.1724 9.98644 84.9302 11.1603 84.9302 12.4823C84.9302 13.81 85.1724 14.9839 85.6567 16.0039C86.1468 17.0182 86.8391 17.8131 87.7338 18.3886ZM86.4722 11.5164C86.5181 10.7845 86.6936 10.1035 86.9987 9.47359C87.3577 8.74421 87.8534 8.15728 88.486 7.71281C89.1185 7.26834 89.8507 7.0461 90.6827 7.0461C91.469 7.0461 92.1614 7.24269 92.7597 7.63588C93.3637 8.02907 93.8338 8.56471 94.17 9.24281C94.5119 9.91521 94.6829 10.6731 94.6829 11.5164H86.4722ZM98.8692 18.9699V5.8409H100.348V7.85811H100.459C100.721 7.19711 101.177 6.66431 101.827 6.25973C102.482 5.84945 103.223 5.64431 104.049 5.64431C104.174 5.64431 104.314 5.64716 104.468 5.65286C104.622 5.65856 104.75 5.66426 104.852 5.66995V7.21705C104.784 7.20566 104.664 7.18856 104.493 7.16577C104.323 7.14297 104.137 7.13158 103.938 7.13158C103.254 7.13158 102.644 7.27689 102.109 7.5675C101.579 7.85242 101.16 8.24845 100.852 8.7556C100.545 9.26275 100.391 9.84114 100.391 10.4907V18.9699H98.8692ZM132.293 19.2434C131.159 19.2434 130.156 18.9556 129.284 18.3801C128.418 17.8046 127.74 17.0096 127.25 15.9953C126.76 14.9753 126.514 13.7986 126.514 12.4652C126.514 11.1204 126.76 9.93801 127.25 8.91801C127.74 7.89231 128.418 7.09454 129.284 6.5247C130.156 5.94917 131.159 5.66141 132.293 5.66141C133.427 5.66141 134.427 5.94917 135.293 6.5247C136.159 7.10024 136.837 7.898 137.327 8.91801C137.823 9.93801 138.071 11.1204 138.071 12.4652C138.071 13.7986 137.826 14.9753 137.336 15.9953C136.846 17.0096 136.165 17.8046 135.293 18.3801C134.427 18.9556 133.427 19.2434 132.293 19.2434ZM132.293 17.8501C133.204 17.8501 133.976 17.6051 134.609 17.1151C135.241 16.625 135.72 15.9725 136.045 15.1577C136.375 14.3428 136.541 13.4453 136.541 12.4652C136.541 11.4851 136.375 10.5848 136.045 9.76421C135.72 8.94365 135.241 8.28549 134.609 7.78974C133.976 7.29398 133.204 7.0461 132.293 7.0461C131.387 7.0461 130.614 7.29398 129.976 7.78974C129.344 8.28549 128.862 8.94365 128.532 9.76421C128.207 10.5848 128.044 11.4851 128.044 12.4652C128.044 13.4453 128.207 14.3428 128.532 15.1577C128.862 15.9725 129.344 16.625 129.976 17.1151C130.609 17.6051 131.381 17.8501 132.293 17.8501ZM142.748 18.363C143.62 18.9499 144.643 19.2434 145.817 19.2434C146.729 19.2434 147.538 19.0667 148.245 18.7134C148.957 18.3601 149.535 17.8758 149.98 17.2604C150.43 16.6392 150.712 15.9327 150.826 15.1406H149.287C149.173 15.699 148.951 16.1805 148.621 16.5851C148.296 16.9897 147.891 17.3031 147.407 17.5253C146.928 17.7419 146.398 17.8501 145.817 17.8501C144.957 17.8501 144.204 17.6194 143.561 17.1578C142.922 16.6962 142.427 16.058 142.073 15.2432C141.72 14.4226 141.543 13.4795 141.543 12.4139C141.543 11.354 141.723 10.4224 142.082 9.6189C142.446 8.80974 142.951 8.18007 143.595 7.7299C144.239 7.27404 144.979 7.0461 145.817 7.0461C146.752 7.0461 147.521 7.31107 148.125 7.84102C148.735 8.36527 149.119 8.99778 149.279 9.73857H150.817C150.698 8.9237 150.404 8.21141 149.937 7.60169C149.475 6.98627 148.888 6.51046 148.176 6.17426C147.464 5.83236 146.669 5.66141 145.791 5.66141C144.646 5.66141 143.64 5.95487 142.774 6.5418C141.908 7.12303 141.23 7.92649 140.74 8.9522C140.255 9.97789 140.013 11.1489 140.013 12.4652C140.013 13.7701 140.253 14.9326 140.731 15.9526C141.21 16.9726 141.882 17.7761 142.748 18.363ZM153.382 18.9699V5.8409H154.912V18.9699H153.382ZM154.16 3.58436C153.846 3.58436 153.578 3.47894 153.356 3.26811C153.134 3.05157 153.023 2.7923 153.023 2.49028C153.023 2.18827 153.134 1.93185 153.356 1.72101C153.578 1.50447 153.846 1.3962 154.16 1.3962C154.473 1.3962 154.741 1.50447 154.963 1.72101C155.185 1.93185 155.296 2.18827 155.296 2.49028C155.296 2.7923 155.185 3.05157 154.963 3.26811C154.741 3.47894 154.473 3.58436 154.16 3.58436ZM160.342 18.3886C161.236 18.9585 162.296 19.2434 163.521 19.2434C164.399 19.2434 165.174 19.1038 165.846 18.8246C166.524 18.5396 167.089 18.1636 167.539 17.6963C167.995 17.229 168.322 16.719 168.522 16.1663L167.077 15.6962C166.912 16.0894 166.667 16.4512 166.342 16.7817C166.023 17.1065 165.627 17.3658 165.154 17.5595C164.687 17.7533 164.143 17.8501 163.521 17.8501C162.61 17.8501 161.82 17.6365 161.154 17.2091C160.487 16.7817 159.971 16.1805 159.607 15.4056C159.269 14.6722 159.091 13.8231 159.07 12.8584H168.846V12.1062C168.846 11.0064 168.693 10.0548 168.385 9.25136C168.077 8.44219 167.658 7.77264 167.128 7.24269C166.604 6.70705 166.012 6.31102 165.351 6.05459C164.69 5.79247 164.003 5.66141 163.291 5.66141C162.157 5.66141 161.157 5.95487 160.29 6.5418C159.43 7.12303 158.755 7.92934 158.265 8.96074C157.78 9.98644 157.538 11.1603 157.538 12.4823C157.538 13.81 157.78 14.9839 158.265 16.0039C158.755 17.0182 159.447 17.8131 160.342 18.3886ZM159.08 11.5164C159.126 10.7845 159.302 10.1035 159.607 9.47359C159.966 8.74421 160.461 8.15728 161.094 7.71281C161.726 7.26834 162.459 7.0461 163.291 7.0461C164.077 7.0461 164.769 7.24269 165.368 7.63588C165.972 8.02907 166.442 8.56471 166.778 9.24281C167.12 9.91521 167.291 10.6731 167.291 11.5164H159.08ZM176.648 5.8409V7.16577H173.87V15.5423C173.87 16.0894 173.964 16.5196 174.153 16.833C174.341 17.1407 174.586 17.3601 174.888 17.4911C175.19 17.6165 175.512 17.6792 175.853 17.6792C176.053 17.6792 176.224 17.6678 176.366 17.645C176.509 17.6165 176.634 17.588 176.742 17.5595L177.067 18.9357C176.919 18.9927 176.737 19.0439 176.52 19.0895C176.304 19.1408 176.036 19.1665 175.717 19.1665C175.158 19.1665 174.62 19.0439 174.101 18.7989C173.588 18.5539 173.167 18.1892 172.836 17.7048C172.506 17.2205 172.34 16.6193 172.34 15.9013V7.16577H170.383V5.8409H172.34V2.69542H173.87V5.8409H176.648ZM179.595 23.8078C179.857 23.8647 180.14 23.8932 180.442 23.8932C180.994 23.8932 181.493 23.7878 181.937 23.577C182.387 23.3718 182.784 23.0556 183.125 22.6282C183.467 22.2065 183.755 21.6794 183.989 21.0469L189.545 5.8409H187.895L183.997 16.9612H183.878L179.98 5.8409H178.33L183.16 19.0981L182.681 20.4315C182.436 21.0925 182.157 21.5826 181.843 21.9017C181.53 22.2265 181.171 22.4088 180.766 22.4487C180.362 22.4943 179.9 22.4373 179.382 22.2778L178.971 23.6197C179.125 23.6881 179.333 23.7508 179.595 23.8078ZM38.1813 40.3652V28.695H37.1157V40.3652H38.1813ZM40.0961 29.6523V28.695H48.5581V29.6523H44.8599V40.3652H43.7943V29.6523H40.0961ZM59.9835 30.0626C60.4926 30.4463 60.7794 30.963 60.844 31.6126H61.8753C61.8526 31.0199 61.6759 30.4919 61.3454 30.0284C61.0187 29.5612 60.5761 29.1946 60.0177 28.9287C59.4593 28.6627 58.8172 28.5298 58.0917 28.5298C57.3737 28.5298 56.726 28.6646 56.1485 28.9344C55.5749 29.2003 55.119 29.5726 54.7809 30.0512C54.4466 30.5261 54.2795 31.0769 54.2795 31.7037C54.2795 32.4521 54.5321 33.0675 55.0373 33.55C55.5426 34.0325 56.253 34.4105 57.1685 34.684L58.5646 35.0943C59.0471 35.2348 59.4707 35.3963 59.8353 35.5786C60.2038 35.761 60.4907 35.987 60.6958 36.2567C60.9009 36.5226 61.0035 36.8531 61.0035 37.2482C61.0035 37.7155 60.8724 38.1258 60.6103 38.4791C60.352 38.8286 59.9949 39.1021 59.539 39.2996C59.087 39.4934 58.5703 39.5902 57.9891 39.5902C57.4648 39.5902 56.99 39.5086 56.5645 39.3452C56.139 39.1781 55.7933 38.9349 55.5274 38.6158C55.2615 38.2967 55.1095 37.9073 55.0715 37.4477H53.9775C54.0192 38.0631 54.2073 38.6044 54.5416 39.0717C54.8759 39.539 55.3356 39.9056 55.9206 40.1715C56.5056 40.4336 57.1951 40.5647 57.9891 40.5647C58.8324 40.5647 59.5561 40.4203 60.1602 40.1316C60.7642 39.8391 61.2276 39.444 61.5505 38.9463C61.8735 38.4487 62.0349 37.8883 62.0349 37.2653C62.0349 36.7791 61.9399 36.3631 61.75 36.0174C61.5638 35.6679 61.315 35.3735 61.0035 35.1341C60.6958 34.891 60.3558 34.6897 59.9835 34.5301C59.6112 34.3706 59.2389 34.2395 58.8666 34.1369L57.6358 33.7836C57.3547 33.7039 57.0755 33.6051 56.7981 33.4873C56.5246 33.3696 56.2739 33.229 56.046 33.0656C55.8218 32.8985 55.6433 32.6991 55.5103 32.4673C55.3773 32.2356 55.3109 31.9659 55.3109 31.6582C55.3109 31.2403 55.4267 30.868 55.6585 30.5413C55.894 30.2108 56.2169 29.9525 56.6272 29.7663C57.0413 29.5802 57.5199 29.4871 58.0632 29.4871C58.8343 29.4871 59.4744 29.6789 59.9835 30.0626ZM67.3544 31.6126V32.4958H65.5025V38.0802C65.5025 38.4449 65.5651 38.7317 65.6905 38.9406C65.8159 39.1458 65.9792 39.292 66.1806 39.3794C66.3819 39.463 66.5965 39.5048 66.8245 39.5048C66.9574 39.5048 67.0714 39.4972 67.1664 39.482C67.2613 39.463 67.3449 39.444 67.4171 39.425L67.6336 40.3424C67.5349 40.3804 67.4133 40.4146 67.2689 40.445C67.1246 40.4792 66.946 40.4963 66.7333 40.4963C66.361 40.4963 66.002 40.4146 65.6563 40.2512C65.3144 40.0879 65.0333 39.8448 64.813 39.5219C64.5926 39.199 64.4825 38.7982 64.4825 38.3195V32.4958H63.1775V31.6126H64.4825V29.5156H65.5025V31.6126H67.3544ZM74.7381 31.6126V37.0203C74.7381 37.5559 74.6204 38.008 74.3848 38.3765C74.1493 38.7412 73.8492 39.0185 73.4845 39.2085C73.1198 39.3984 72.7399 39.4934 72.3448 39.4934C71.7142 39.4934 71.1976 39.2863 70.7949 38.8723C70.3922 38.4544 70.1909 37.9035 70.1909 37.2197V31.6126H69.1766V37.2824C69.1766 37.9738 69.3 38.5569 69.547 39.0318C69.7939 39.5067 70.1339 39.8676 70.567 40.1145C71 40.3576 71.4958 40.4792 72.0542 40.4792C72.6962 40.4792 73.2395 40.331 73.684 40.0347C74.1284 39.7346 74.4532 39.3604 74.6584 38.9121H74.7381V40.3652H75.7524V31.6126H74.7381ZM81.1076 40.5476C80.3896 40.5476 79.7609 40.3576 79.2214 39.9777C78.682 39.5978 78.2603 39.0679 77.9564 38.3879C77.6563 37.7079 77.5062 36.9158 77.5062 36.0117C77.5062 35.1114 77.6563 34.3231 77.9564 33.6469C78.2603 32.9669 78.6839 32.4388 79.2271 32.0627C79.7704 31.6829 80.4029 31.4929 81.1247 31.4929C81.6565 31.4929 82.0991 31.5879 82.4524 31.7778C82.8057 31.964 83.0887 32.1957 83.3014 32.473C83.5142 32.7503 83.6794 33.0201 83.7972 33.2822H83.8884V28.695H84.9084V40.3652H83.9168V38.7412H83.7972C83.6794 39.0071 83.5123 39.2806 83.2957 39.5617C83.0792 39.8391 82.7924 40.0727 82.4353 40.2626C82.082 40.4526 81.6394 40.5476 81.1076 40.5476ZM81.2272 39.6187C81.7933 39.6187 82.2757 39.4649 82.6746 39.1572C83.0735 38.8457 83.3774 38.4183 83.5863 37.875C83.7991 37.328 83.9055 36.7012 83.9055 35.9946C83.9055 35.2956 83.801 34.6783 83.592 34.1426C83.3831 33.6032 83.0792 33.1815 82.6803 32.8776C82.2814 32.5699 81.7971 32.416 81.2272 32.416C80.6422 32.416 80.1483 32.5756 79.7457 32.8947C79.3468 33.21 79.0429 33.6374 78.8339 34.1768C78.6288 34.7163 78.5262 35.3222 78.5262 35.9946C78.5262 36.6746 78.6307 37.2881 78.8396 37.8352C79.0486 38.3822 79.3525 38.8172 79.7514 39.1401C80.154 39.4592 80.646 39.6187 81.2272 39.6187ZM88.7349 39.9777C89.3313 40.3576 90.0379 40.5476 90.8547 40.5476C91.4397 40.5476 91.9564 40.4545 92.4046 40.2683C92.8567 40.0784 93.2328 39.8277 93.5329 39.5162C93.8368 39.2047 94.0553 38.8647 94.1882 38.4962L93.2252 38.1828C93.115 38.4449 92.9517 38.6861 92.7351 38.9064C92.5224 39.123 92.2584 39.2958 91.9431 39.425C91.6316 39.5542 91.2688 39.6187 90.8547 39.6187C90.2469 39.6187 89.7207 39.4763 89.2762 39.1914C88.8318 38.9064 88.488 38.5057 88.2448 37.989C88.02 37.5001 87.9008 36.9341 87.8872 36.2909H94.4047V35.7895C94.4047 35.0563 94.3022 34.4219 94.097 33.8862C93.8919 33.3468 93.6127 32.9004 93.2594 32.5471C92.9099 32.19 92.5148 31.926 92.0741 31.755C91.6335 31.5803 91.1757 31.4929 90.7008 31.4929C89.9448 31.4929 89.2781 31.6886 88.7007 32.0798C88.1271 32.4673 87.6769 33.0049 87.3502 33.6925C87.0273 34.3763 86.8658 35.1588 86.8658 36.0402C86.8658 36.9253 87.0273 37.7079 87.3502 38.3879C87.6769 39.0641 88.1385 39.594 88.7349 39.9777ZM87.8939 35.3963C87.9244 34.9083 88.0414 34.4543 88.2448 34.0344C88.4842 33.5481 88.8147 33.1568 89.2364 32.8605C89.658 32.5642 90.1462 32.416 90.7008 32.416C91.2251 32.416 91.6866 32.5471 92.0855 32.8092C92.4882 33.0713 92.8016 33.4284 93.0257 33.8805C93.2537 34.3288 93.3677 34.834 93.3677 35.3963H87.8939ZM97.1728 34.8948V40.3652H96.1585V31.6126H97.1443V32.9859H97.2355C97.4407 32.5376 97.7598 32.1786 98.1928 31.9089C98.6297 31.6354 99.1691 31.4986 99.8112 31.4986C100.4 31.4986 100.917 31.6221 101.361 31.869C101.809 32.1121 102.157 32.4711 102.404 32.946C102.655 33.4208 102.78 34.004 102.78 34.6954V40.3652H101.766V34.7581C101.766 34.0401 101.564 33.4721 101.162 33.0543C100.763 32.6364 100.227 32.4274 99.5547 32.4274C99.0951 32.4274 98.6867 32.5262 98.3296 32.7237C97.9725 32.9213 97.6895 33.2062 97.4805 33.5785C97.2754 33.947 97.1728 34.3858 97.1728 34.8948ZM108.417 32.4958V31.6126H106.565V29.5156H105.545V31.6126H104.24V32.4958H105.545V38.3195C105.545 38.7982 105.655 39.199 105.876 39.5219C106.096 39.8448 106.377 40.0879 106.719 40.2512C107.065 40.4146 107.424 40.4963 107.796 40.4963C108.009 40.4963 108.187 40.4792 108.332 40.445C108.476 40.4146 108.598 40.3804 108.696 40.3424L108.48 39.425C108.408 39.444 108.324 39.463 108.229 39.482C108.134 39.4972 108.02 39.5048 107.887 39.5048C107.659 39.5048 107.445 39.463 107.243 39.3794C107.042 39.292 106.879 39.1458 106.753 38.9406C106.628 38.7317 106.565 38.4449 106.565 38.0802V32.4958H108.417ZM114.482 28.695H118.419C119.179 28.695 119.812 28.828 120.317 29.0939C120.826 29.3598 121.208 29.7226 121.462 30.1823C121.717 30.642 121.844 31.1643 121.844 31.7493C121.844 32.2356 121.762 32.6516 121.599 32.9973C121.436 33.343 121.214 33.6222 120.932 33.8349C120.651 34.0477 120.338 34.2015 119.992 34.2965V34.3877C120.368 34.4143 120.733 34.5472 121.086 34.7865C121.44 35.0221 121.73 35.3526 121.958 35.7781C122.186 36.2035 122.3 36.7126 122.3 37.3052C122.3 37.894 122.169 38.4202 121.907 38.8837C121.645 39.3433 121.242 39.7061 120.699 39.972C120.159 40.2342 119.472 40.3652 118.636 40.3652H114.482V28.695ZM115.547 39.4079H118.636C119.536 39.4079 120.201 39.2085 120.63 38.8096C121.063 38.4107 121.28 37.9092 121.28 37.3052C121.28 36.8607 121.172 36.4581 120.955 36.0972C120.742 35.7325 120.44 35.4438 120.049 35.231C119.662 35.0183 119.206 34.9119 118.682 34.9119H115.547V39.4079ZM115.547 33.966H118.516C118.976 33.966 119.379 33.871 119.724 33.6811C120.07 33.4911 120.34 33.229 120.533 32.8947C120.727 32.5604 120.824 32.1786 120.824 31.7493C120.824 31.1301 120.623 30.6268 120.22 30.2393C119.817 29.848 119.217 29.6523 118.419 29.6523H115.547V33.966ZM124.179 31.6126V40.3652H125.193V34.7125C125.193 34.2794 125.296 33.8938 125.501 33.5557C125.706 33.2176 125.985 32.9536 126.339 32.7636C126.696 32.5699 127.102 32.473 127.558 32.473C127.691 32.473 127.815 32.4806 127.929 32.4958C128.043 32.511 128.122 32.5224 128.168 32.53V31.4986C128.1 31.4948 128.014 31.491 127.912 31.4872C127.809 31.4834 127.716 31.4815 127.632 31.4815C127.081 31.4815 126.588 31.6183 126.151 31.8918C125.718 32.1615 125.414 32.5167 125.239 32.9574H125.165V31.6126H124.179ZM131.862 40.5647C131.334 40.5647 130.852 40.4621 130.415 40.2569C129.978 40.048 129.63 39.7479 129.372 39.3566C129.114 38.9615 128.984 38.4829 128.984 37.9206C128.984 37.4876 129.066 37.1229 129.229 36.8265C129.393 36.5302 129.624 36.2871 129.925 36.0972C130.225 35.9072 130.58 35.7572 130.99 35.647C131.4 35.5368 131.853 35.4514 132.346 35.3906C132.836 35.3298 133.251 35.2766 133.589 35.231C133.931 35.1854 134.191 35.1133 134.369 35.0145C134.548 34.9157 134.637 34.7562 134.637 34.5358V34.3307C134.637 33.7343 134.459 33.2651 134.101 32.9232C133.748 32.5775 133.239 32.4046 132.574 32.4046C131.944 32.4046 131.429 32.5433 131.03 32.8206C130.635 33.0979 130.358 33.4246 130.198 33.8007L129.235 33.4531C129.433 32.9745 129.706 32.5927 130.056 32.3078C130.405 32.0191 130.796 31.812 131.229 31.6867C131.663 31.5575 132.101 31.4929 132.546 31.4929C132.88 31.4929 133.228 31.5366 133.589 31.624C133.953 31.7113 134.291 31.8633 134.603 32.0798C134.914 32.2926 135.167 32.5908 135.361 32.9745C135.555 33.3544 135.651 33.8368 135.651 34.4219V40.3652H134.637V38.9805H134.574C134.453 39.2388 134.272 39.4896 134.033 39.7327C133.794 39.9758 133.494 40.1753 133.133 40.331C132.772 40.4868 132.348 40.5647 131.862 40.5647ZM131.999 39.6358C132.538 39.6358 133.005 39.5162 133.401 39.2768C133.796 39.0375 134.1 38.7203 134.312 38.3252C134.529 37.9263 134.637 37.4876 134.637 37.0089V35.7439C134.561 35.816 134.434 35.8806 134.255 35.9376C134.081 35.9946 133.877 36.0459 133.646 36.0915C133.418 36.1333 133.19 36.1693 132.962 36.1997C132.734 36.2301 132.529 36.2567 132.346 36.2795C131.853 36.3403 131.431 36.4353 131.081 36.5644C130.732 36.6936 130.464 36.8721 130.278 37.1001C130.092 37.3242 129.999 37.6129 129.999 37.9662C129.999 38.4981 130.189 38.9102 130.568 39.2028C130.948 39.4915 131.425 39.6358 131.999 39.6358ZM138.882 40.3652V34.8948C138.882 34.3858 138.985 33.947 139.19 33.5785C139.399 33.2062 139.682 32.9213 140.039 32.7237C140.396 32.5262 140.805 32.4274 141.264 32.4274C141.937 32.4274 142.472 32.6364 142.871 33.0543C143.274 33.4721 143.475 34.0401 143.475 34.7581V40.3652H144.49V34.6954C144.49 34.004 144.364 33.4208 144.114 32.946C143.867 32.4711 143.519 32.1121 143.071 31.869C142.626 31.6221 142.11 31.4986 141.521 31.4986C140.879 31.4986 140.339 31.6354 139.902 31.9089C139.469 32.1786 139.15 32.5376 138.945 32.9859H138.854V31.6126H137.868V40.3652H138.882ZM150.098 40.5476C149.316 40.5476 148.634 40.3519 148.053 39.9606C147.475 39.5693 147.027 39.0337 146.708 38.3537C146.389 37.6737 146.229 36.8987 146.229 36.0288C146.229 35.1512 146.391 34.3706 146.714 33.6868C147.04 33.003 147.492 32.4673 148.07 32.0798C148.647 31.6886 149.318 31.4929 150.081 31.4929C150.666 31.4929 151.196 31.6069 151.671 31.8348C152.146 32.0589 152.537 32.3762 152.845 32.7864C153.156 33.1929 153.352 33.6678 153.432 34.211H152.406C152.3 33.7172 152.043 33.2955 151.637 32.946C151.234 32.5927 150.721 32.416 150.098 32.416C149.54 32.416 149.046 32.568 148.617 32.8719C148.187 33.172 147.851 33.5918 147.608 34.1312C147.369 34.6669 147.249 35.288 147.249 35.9946C147.249 36.705 147.367 37.3337 147.602 37.8807C147.838 38.424 148.169 38.8495 148.594 39.1572C149.023 39.4649 149.525 39.6187 150.098 39.6187C150.486 39.6187 150.839 39.5466 151.158 39.4022C151.481 39.254 151.751 39.0451 151.967 38.7754C152.188 38.5057 152.336 38.1847 152.412 37.8124H153.438C153.362 38.3404 153.174 38.8115 152.873 39.2255C152.577 39.6358 152.192 39.9587 151.717 40.1943C151.246 40.4298 150.706 40.5476 150.098 40.5476ZM156.144 40.3652V34.8948C156.144 34.3858 156.249 33.947 156.458 33.5785C156.671 33.2062 156.959 32.9213 157.324 32.7237C157.689 32.5262 158.105 32.4274 158.572 32.4274C159.252 32.4274 159.791 32.6364 160.19 33.0543C160.593 33.4683 160.794 34.0363 160.794 34.7581V40.3652H161.814V34.6954C161.814 34.0002 161.689 33.4151 161.438 32.9403C161.187 32.4654 160.838 32.1064 160.39 31.8633C159.941 31.6202 159.421 31.4986 158.828 31.4986C158.167 31.4986 157.62 31.6335 157.187 31.9032C156.758 32.1729 156.441 32.5338 156.236 32.9859H156.144V28.695H155.13V40.3652H156.144Z" fill="white"/>
<path d="M206.241 0.548096H182.171L206.241 23.9493V0.548096Z" fill="#EA8913"/>
<path d="M218.276 23.9493V0.548096H207.578V13.5487L218.276 23.9493Z" fill="#2222B2"/>
<path d="M230.311 23.9493V0.548096H219.613V13.5487L230.311 23.9493Z" fill="#0A5616"/>
</svg>
